<svg width="24" height="24" viewBox="0 0 24 24" fill="none" xmlns="http://www.w3.org/2000/svg">
<g clip-path="url(#clip0_25_36)">
<path d="M23.6081 17.0129L20.8081 6.91292C20.2454 4.88121 19.0191 3.0962 17.3244 1.84223C15.6297 0.588255 13.5641 -0.0625562 11.4567 -0.00654033C9.34922 0.0494756 7.32114 0.809096 5.69545 2.15132C4.06976 3.49355 2.93998 5.34119 2.48606 7.39992L0.321057 17.1399C0.239891 17.5054 0.241845 17.8844 0.326773 18.2491C0.411701 18.6137 0.577436 18.9546 0.811741 19.2466C1.04605 19.5385 1.34294 19.7742 1.6805 19.9361C2.01806 20.098 2.38768 20.182 2.76206 20.1819H6.90506C7.22329 21.2824 7.89049 22.2498 8.80618 22.9382C9.72187 23.6266 10.8365 23.9988 11.9821 23.9988C13.1277 23.9988 14.2422 23.6266 15.1579 22.9382C16.0736 22.2498 16.7408 21.2824 17.0591 20.1819H21.2001C21.5855 20.182 21.9657 20.0929 22.3109 19.9216C22.6562 19.7504 22.9572 19.5017 23.1905 19.1949C23.4237 18.888 23.5828 18.5314 23.6555 18.1529C23.7281 17.7744 23.7122 17.3843 23.6091 17.0129H23.6081ZM3.38506 17.1819L5.41506 8.04492C5.72597 6.641 6.4976 5.38142 7.6071 4.46671C8.7166 3.552 10.1002 3.03473 11.5377 2.99724C12.9751 2.95975 14.3838 3.4042 15.5395 4.25983C16.6952 5.11547 17.5314 6.33311 17.9151 7.71892L20.5431 17.1819H3.38506Z" fill="#669BAE"/>
</g>
<defs>
<clipPath id="clip0_25_36">
<rect width="24" height="24" fill="white"/>
</clipPath>
</defs>
</svg>
