<svg width="24" height="24" viewBox="0 0 24 24" fill="none" xmlns="http://www.w3.org/2000/svg">
<g clip-path="url(#clip0_25_29)">
<path d="M21 24.0006H18V19.0006C18 18.4702 17.7893 17.9615 17.4142 17.5864C17.0391 17.2113 16.5304 17.0006 16 17.0006H8C7.46957 17.0006 6.96086 17.2113 6.58579 17.5864C6.21071 17.9615 6 18.4702 6 19.0006V24.0006H3V19.0006C3.00159 17.675 3.52888 16.4042 4.46622 15.4668C5.40356 14.5295 6.67441 14.0022 8 14.0006H16C17.3256 14.0022 18.5964 14.5295 19.5338 15.4668C20.4711 16.4042 20.9984 17.675 21 19.0006V24.0006Z" fill="#669BAE"/>
<path d="M12 11.9999C10.8133 11.9999 9.65328 11.648 8.66658 10.9888C7.67989 10.3295 6.91085 9.3924 6.45673 8.29604C6.0026 7.19968 5.88378 5.99328 6.11529 4.8294C6.3468 3.66551 6.91825 2.59641 7.75736 1.7573C8.59648 0.918182 9.66557 0.346738 10.8295 0.115226C11.9933 -0.116285 13.1997 0.00253487 14.2961 0.456661C15.3925 0.910786 16.3295 1.67982 16.9888 2.66652C17.6481 3.65321 18 4.81325 18 5.99994C17.9984 7.59075 17.3658 9.11595 16.2409 10.2408C15.116 11.3657 13.5908 11.9983 12 11.9999ZM12 2.99994C11.4067 2.99994 10.8266 3.17588 10.3333 3.50553C9.83994 3.83517 9.45543 4.30371 9.22836 4.85189C9.0013 5.40007 8.94189 6.00327 9.05765 6.58521C9.1734 7.16715 9.45912 7.7017 9.87868 8.12126C10.2982 8.54082 10.8328 8.82654 11.4147 8.94229C11.9967 9.05805 12.5999 8.99864 13.1481 8.77158C13.6962 8.54451 14.1648 8.16 14.4944 7.66665C14.8241 7.1733 15 6.59328 15 5.99994C15 5.20429 14.6839 4.44123 14.1213 3.87862C13.5587 3.31601 12.7957 2.99994 12 2.99994Z" fill="#669BAE"/>
</g>
<defs>
<clipPath id="clip0_25_29">
<rect width="24" height="24" fill="white"/>
</clipPath>
</defs>
</svg>
